<svg width="26" height="24" viewBox="0 0 26 24" fill="none" xmlns="http://www.w3.org/2000/svg">
<path fill-rule="evenodd" clip-rule="evenodd" d="M8.08676 1.6846C9.35751 1.63264 9.76267 1.62109 12.9997 1.62109C16.2367 1.62109 16.6418 1.6336 17.9115 1.6846C19.1812 1.7356 20.0478 1.91554 20.8062 2.17631C21.6003 2.44286 22.3207 2.85952 22.9165 3.39838C23.5232 3.92666 23.9912 4.56559 24.2902 5.27189C24.5848 5.94547 24.7863 6.71527 24.8448 7.84111C24.9033 8.97176 24.9163 9.33164 24.9163 12.2059C24.9163 15.0811 24.9023 15.441 24.8448 16.5697C24.7874 17.6956 24.5848 18.4654 24.2902 19.1389C23.9912 19.8453 23.5224 20.4853 22.9165 21.0144C22.3207 21.5532 21.6003 21.9689 20.8062 22.2345C20.0478 22.4963 19.1812 22.6752 17.9137 22.7272C16.6418 22.7792 16.2367 22.7907 12.9997 22.7907C9.76267 22.7907 9.35751 22.7782 8.08676 22.7272C6.81926 22.6762 5.95259 22.4963 5.19426 22.2345C4.399 21.9689 3.67848 21.5525 3.08284 21.0144C2.47659 20.4858 2.00743 19.8461 1.70809 19.1399C1.41451 18.4663 1.21301 17.6965 1.15451 16.5707C1.09601 15.44 1.08301 15.0802 1.08301 12.2059C1.08301 9.33068 1.09709 8.9708 1.15451 7.84303C1.21192 6.71527 1.41451 5.94547 1.70809 5.27189C2.00787 4.56567 2.47739 3.926 3.08392 3.39742C3.67872 2.85904 4.39852 2.44232 5.19317 2.17631C5.95151 1.91554 6.81817 1.73656 8.08567 1.6846H8.08676ZM17.8151 3.58987C16.5584 3.53887 16.1814 3.52828 12.9997 3.52828C9.81792 3.52828 9.44092 3.53887 8.18426 3.58987C7.02184 3.63702 6.39134 3.80926 5.97101 3.95456C5.41526 4.14701 5.01767 4.37507 4.60059 4.74554C4.20522 5.08719 3.90095 5.5031 3.71009 5.96279C3.54651 6.33614 3.35259 6.89618 3.29951 7.92867C3.24209 9.04489 3.23017 9.37976 3.23017 12.2059C3.23017 15.032 3.24209 15.3669 3.29951 16.4831C3.35259 17.5156 3.54651 18.0757 3.71009 18.449C3.90076 18.908 4.20517 19.3247 4.60059 19.6663C4.98517 20.0175 5.45426 20.2879 5.97101 20.4572C6.39134 20.6025 7.02184 20.7748 8.18426 20.8219C9.44092 20.8729 9.81684 20.8835 12.9997 20.8835C16.1825 20.8835 16.5584 20.8729 17.8151 20.8219C18.9775 20.7748 19.608 20.6025 20.0283 20.4572C20.5841 20.2648 20.9817 20.0367 21.3988 19.6663C21.7942 19.3247 22.0986 18.908 22.2893 18.449C22.4528 18.0757 22.6468 17.5156 22.6998 16.4831C22.7573 15.3669 22.7692 15.032 22.7692 12.2059C22.7692 9.37976 22.7573 9.04489 22.6998 7.92867C22.6468 6.89618 22.4528 6.33614 22.2893 5.96279C22.0726 5.46915 21.8158 5.116 21.3988 4.74554C21.0141 4.39438 20.5458 4.12412 20.0283 3.95456C19.608 3.80926 18.9775 3.63702 17.8151 3.58987ZM11.4776 15.4689C12.3276 15.7832 13.2742 15.8256 14.1555 15.5889C15.0369 15.3522 15.7983 14.8511 16.3099 14.1711C16.8215 13.4911 17.0514 12.6744 16.9604 11.8605C16.8694 11.0467 16.4631 10.2862 15.8109 9.70885C15.3952 9.3398 14.8925 9.05722 14.339 8.88145C13.7856 8.70568 13.1951 8.64109 12.6102 8.69234C12.0253 8.74358 11.4604 8.90938 10.9563 9.17781C10.4522 9.44623 10.0213 9.8106 9.69475 10.2447C9.36819 10.6788 9.15404 11.1718 9.06773 11.6882C8.98142 12.2046 9.02509 12.7316 9.19559 13.2312C9.36609 13.7308 9.65919 14.1907 10.0538 14.5776C10.4484 14.9645 10.9346 15.2689 11.4776 15.4689ZM8.66851 8.3588C9.23728 7.85359 9.91252 7.45284 10.6557 7.17943C11.3988 6.90601 12.1953 6.76528 12.9997 6.76528C13.804 6.76528 14.6005 6.90601 15.3437 7.17943C16.0868 7.45284 16.7621 7.85359 17.3308 8.3588C17.8996 8.86401 18.3508 9.46378 18.6586 10.1239C18.9664 10.784 19.1249 11.4914 19.1249 12.2059C19.1249 12.9204 18.9664 13.6278 18.6586 14.2879C18.3508 14.948 17.8996 15.5478 17.3308 16.053C16.1821 17.0733 14.6242 17.6465 12.9997 17.6465C11.3752 17.6465 9.8172 17.0733 8.66851 16.053C7.51981 15.0327 6.87448 13.6488 6.87448 12.2059C6.87448 10.763 7.51981 9.37912 8.66851 8.3588ZM20.4833 7.57553C20.6243 7.45743 20.7371 7.31541 20.8152 7.15788C20.8932 7.00036 20.9349 6.83052 20.9377 6.65843C20.9405 6.48634 20.9045 6.3155 20.8316 6.15602C20.7588 5.99654 20.6506 5.85166 20.5136 5.72996C20.3766 5.60826 20.2135 5.51222 20.034 5.44752C19.8544 5.38282 19.6621 5.35077 19.4683 5.35328C19.2746 5.35579 19.0834 5.3928 18.906 5.46212C18.7287 5.53145 18.5688 5.63167 18.4358 5.75687C18.1773 6.00034 18.0357 6.32375 18.0412 6.65843C18.0467 6.99311 18.1988 7.31272 18.4653 7.5494C18.7317 7.78608 19.0915 7.9212 19.4683 7.92608C19.8451 7.93095 20.2092 7.80521 20.4833 7.57553Z" fill="#109172"/>
</svg>
