<svg width="43" height="43" viewBox="0 0 43 43" fill="none" xmlns="http://www.w3.org/2000/svg">
<path d="M21.4355 12.4879C21.4355 12.4879 15.9261 13.0362 13.0415 10.6335C10.1569 8.22913 10.8145 3.63709 10.8145 3.63709C10.8145 3.63709 16.3239 3.08884 19.2102 5.49146C22.0948 7.89588 21.4355 12.4879 21.4355 12.4879V12.4879Z" stroke="black" stroke-width="3.58333" stroke-linecap="round" stroke-linejoin="round"/>
<path d="M21.5645 12.4879C21.5645 12.4879 27.0739 13.0362 29.9584 10.6335C32.843 8.22913 32.1855 3.63709 32.1855 3.63709C32.1855 3.63709 26.6761 3.08884 23.7915 5.49146C20.9069 7.89588 21.5645 12.4879 21.5645 12.4879V12.4879Z" stroke="black" stroke-width="3.58333" stroke-linecap="round" stroke-linejoin="round"/>
<path d="M7.16699 19.7083C7.16699 19.2331 7.35576 18.7774 7.69176 18.4414C8.02776 18.1054 8.48348 17.9166 8.95866 17.9166H34.042C34.5172 17.9166 34.9729 18.1054 35.3089 18.4414C35.6449 18.7774 35.8337 19.2331 35.8337 19.7083V23.2916C35.8337 23.7668 35.6449 24.2225 35.3089 24.5585C34.9729 24.8945 34.5172 25.0833 34.042 25.0833H8.95866C8.48348 25.0833 8.02776 24.8945 7.69176 24.5585C7.35576 24.2225 7.16699 23.7668 7.16699 23.2916V19.7083Z" stroke="black" stroke-width="3.58333" stroke-linecap="round" stroke-linejoin="round"/>
<path d="M8.95898 25.0833H34.0423L30.459 39.4166H12.5423L8.95898 25.0833Z" stroke="black" stroke-width="3.58333" stroke-linecap="round" stroke-linejoin="round"/>
</svg>
