<svg width="30" height="28" viewBox="0 0 30 28" fill="none" xmlns="http://www.w3.org/2000/svg">
<path d="M28.125 14.1331C28.125 14.0758 28.125 14.0108 28.1221 13.9353C28.1191 13.7245 28.1133 13.4877 28.1074 13.2353C28.084 12.5093 28.043 11.7858 27.9785 11.1041C27.8906 10.1646 27.7617 9.38136 27.5859 8.79325C27.4004 8.17951 27.0368 7.61976 26.5315 7.16996C26.0261 6.72015 25.3966 6.39605 24.7061 6.23003C23.877 6.03226 22.2539 5.90996 19.9688 5.83449C18.8818 5.79806 17.7187 5.77464 16.5557 5.76163C16.1484 5.75643 15.7705 5.75382 15.4307 5.75122H14.5693C14.2295 5.75382 13.8516 5.75643 13.4443 5.76163C12.2812 5.77464 11.1182 5.79806 10.0312 5.83449C7.74609 5.91256 6.12012 6.03487 5.29395 6.23003C4.60313 6.39564 3.97345 6.71961 3.468 7.16948C2.96256 7.61935 2.5991 8.17931 2.41406 8.79325C2.23535 9.38136 2.10938 10.1646 2.02148 11.1041C1.95703 11.7858 1.91602 12.5093 1.89258 13.2353C1.88379 13.4877 1.88086 13.7245 1.87793 13.9353C1.87793 14.0108 1.875 14.0758 1.875 14.1331V14.2788C1.875 14.336 1.875 14.4011 1.87793 14.4766C1.88086 14.6874 1.88672 14.9242 1.89258 15.1766C1.91602 15.9026 1.95703 16.626 2.02148 17.3078C2.10938 18.2472 2.23828 19.0305 2.41406 19.6186C2.78906 20.8651 3.89062 21.8487 5.29395 22.1818C6.12012 22.3796 7.74609 22.5019 10.0312 22.5774C11.1182 22.6138 12.2812 22.6372 13.4443 22.6502C13.8516 22.6554 14.2295 22.658 14.5693 22.6606H15.4307C15.7705 22.658 16.1484 22.6554 16.5557 22.6502C17.7187 22.6372 18.8818 22.6138 19.9688 22.5774C22.2539 22.4993 23.8799 22.377 24.7061 22.1818C26.1094 21.8487 27.2109 20.8677 27.5859 19.6186C27.7646 19.0305 27.8906 18.2472 27.9785 17.3078C28.043 16.626 28.084 15.9026 28.1074 15.1766C28.1162 14.9242 28.1191 14.6874 28.1221 14.4766C28.1221 14.4011 28.125 14.336 28.125 14.2788V14.1331ZM26.0156 14.2684C26.0156 14.323 26.0156 14.3829 26.0127 14.4531C26.0098 14.6561 26.0039 14.8799 25.998 15.1219C25.9775 15.8141 25.9365 16.5063 25.875 17.1491C25.7959 17.987 25.6846 18.674 25.5469 19.1346C25.3652 19.7357 24.832 20.2119 24.1582 20.3707C23.543 20.5164 21.9932 20.6335 19.8867 20.7038C18.8203 20.7402 17.6719 20.7636 16.5264 20.7766C16.125 20.7818 15.7529 20.7844 15.4189 20.7844H14.5811L13.4736 20.7766C12.3281 20.7636 11.1826 20.7402 10.1133 20.7038C8.00684 20.6309 6.4541 20.5164 5.8418 20.3707C5.16797 20.2093 4.63477 19.7357 4.45312 19.1346C4.31543 18.674 4.2041 17.987 4.125 17.1491C4.06348 16.5063 4.02539 15.8141 4.00195 15.1219C3.99316 14.8799 3.99023 14.6535 3.9873 14.4531C3.9873 14.3829 3.98438 14.3204 3.98438 14.2684V14.1435C3.98438 14.0888 3.98438 14.029 3.9873 13.9587C3.99023 13.7557 3.99609 13.532 4.00195 13.2899C4.02246 12.5977 4.06348 11.9055 4.125 11.2628C4.2041 10.4249 4.31543 9.73787 4.45312 9.27727C4.63477 8.67615 5.16797 8.19994 5.8418 8.0412C6.45703 7.89548 8.00684 7.77837 10.1133 7.70811C11.1797 7.67168 12.3281 7.64826 13.4736 7.63525C13.875 7.63005 14.2471 7.62744 14.5811 7.62744H15.4189L16.5264 7.63525C17.6719 7.64826 18.8174 7.67168 19.8867 7.70811C21.9932 7.78098 23.5459 7.89548 24.1582 8.0412C24.832 8.20254 25.3652 8.67615 25.5469 9.27727C25.6846 9.73787 25.7959 10.4249 25.875 11.2628C25.9365 11.9055 25.9746 12.5977 25.998 13.2899C26.0068 13.532 26.0098 13.7583 26.0127 13.9587C26.0127 14.029 26.0156 14.0914 26.0156 14.1435V14.2684ZM12.3926 17.693L19.1895 14.1799L12.3926 10.7189V17.693Z" fill="#109172"/>
</svg>
