<svg width="29" height="27" viewBox="0 0 29 27" fill="none" xmlns="http://www.w3.org/2000/svg">
<path d="M24.9219 3.69971H4.07812C3.57686 3.69971 3.17188 4.05942 3.17188 4.50467V23.0188C3.17188 23.4641 3.57686 23.8238 4.07812 23.8238H24.9219C25.4231 23.8238 25.8281 23.4641 25.8281 23.0188V4.50467C25.8281 4.05942 25.4231 3.69971 24.9219 3.69971ZM24.0156 22.2139H18.8019V16.0307H21.7472L22.189 12.9945H18.8019V11.0551C18.8019 10.1746 19.0766 9.57594 20.4954 9.57594H22.3051V6.85919C21.9907 6.82146 20.9174 6.73844 19.6656 6.73844C17.0545 6.73844 15.2675 8.15468 15.2675 10.7532V12.992H12.3165V16.0282H15.2703V22.2139H4.98438V5.30963H24.0156V22.2139Z" fill="#109172"/>
</svg>
