<svg width="84" height="84" viewBox="0 0 84 84" fill="none" xmlns="http://www.w3.org/2000/svg">
<path d="M10.5 63H36.75V68.25H10.5V63Z" fill="#109172"/>
<path d="M10.5 47.25H36.75V52.5H10.5V47.25Z" fill="#109172"/>
<path d="M68.25 36.75H15.75C14.3576 36.75 13.0223 36.1969 12.0377 35.2123C11.0531 34.2277 10.5 32.8924 10.5 31.5V15.75C10.5 14.3576 11.0531 13.0223 12.0377 12.0377C13.0223 11.0531 14.3576 10.5 15.75 10.5H68.25C69.6424 10.5 70.9777 11.0531 71.9623 12.0377C72.9469 13.0223 73.5 14.3576 73.5 15.75V31.5C73.5 32.8924 72.9469 34.2277 71.9623 35.2123C70.9777 36.1969 69.6424 36.75 68.25 36.75ZM15.75 15.75V31.5H68.25V15.75H15.75Z" fill="#109172"/>
<path d="M68.25 73.5H52.5C51.1076 73.5 49.7723 72.9469 48.7877 71.9623C47.8031 70.9777 47.25 69.6424 47.25 68.25V52.5C47.25 51.1076 47.8031 49.7723 48.7877 48.7877C49.7723 47.8031 51.1076 47.25 52.5 47.25H68.25C69.6424 47.25 70.9777 47.8031 71.9623 48.7877C72.9469 49.7723 73.5 51.1076 73.5 52.5V68.25C73.5 69.6424 72.9469 70.9777 71.9623 71.9623C70.9777 72.9469 69.6424 73.5 68.25 73.5ZM52.5 52.5V68.25H68.25V52.5H52.5Z" fill="#109172"/>
</svg>
