<svg width="44" height="44" viewBox="0 0 44 44" fill="none" xmlns="http://www.w3.org/2000/svg">
<path fill-rule="evenodd" clip-rule="evenodd" d="M18.7917 12.8333C19.7641 12.8333 20.6968 12.447 21.3844 11.7594C22.072 11.0718 22.4583 10.1391 22.4583 9.16667C22.4583 8.19421 22.072 7.26157 21.3844 6.57394C20.6968 5.88631 19.7641 5.5 18.7917 5.5C17.8192 5.5 16.8866 5.88631 16.1989 6.57394C15.5113 7.26157 15.125 8.19421 15.125 9.16667C15.125 10.1391 15.5113 11.0718 16.1989 11.7594C16.8866 12.447 17.8192 12.8333 18.7917 12.8333ZM18.7917 11C19.2779 11 19.7442 10.8068 20.088 10.463C20.4318 10.1192 20.625 9.6529 20.625 9.16667C20.625 8.68044 20.4318 8.21412 20.088 7.8703C19.7442 7.52649 19.2779 7.33333 18.7917 7.33333C18.3054 7.33333 17.8391 7.52649 17.4953 7.8703C17.1515 8.21412 16.9583 8.68044 16.9583 9.16667C16.9583 9.6529 17.1515 10.1192 17.4953 10.463C17.8391 10.8068 18.3054 11 18.7917 11Z" fill="black"/>
<path d="M24.7503 20.1666C24.7503 19.6804 24.5572 19.214 24.2134 18.8702C23.8695 18.5264 23.4032 18.3333 22.917 18.3333V21.9999C23.4032 21.9999 23.8695 21.8068 24.2134 21.4629C24.5572 21.1191 24.7503 20.6528 24.7503 20.1666Z" fill="black"/>
<path fill-rule="evenodd" clip-rule="evenodd" d="M10.083 32.0834C10.0832 31.5145 9.90695 30.9596 9.57862 30.495C9.25029 30.0304 8.78599 29.679 8.24967 29.4892V20.1667H12.833V35.7501C12.833 36.4794 13.1227 37.1789 13.6385 37.6946C14.1542 38.2103 14.8537 38.5001 15.583 38.5001C16.3124 38.5001 17.0118 38.2103 17.5276 37.6946C18.0433 37.1789 18.333 36.4794 18.333 35.7501V28.4167H19.2497V35.7501C19.2497 36.3927 19.4697 36.9839 19.84 37.4523C20.1938 37.9012 20.6787 38.2286 21.2272 38.3891C21.7757 38.5497 22.3606 38.5354 22.9005 38.3481C23.4405 38.1609 23.9087 37.8101 24.2401 37.3445C24.5715 36.8789 24.7496 36.3216 24.7497 35.7501V25.4082C26.1824 24.7482 28.4163 22.8342 28.4163 19.7735C28.4163 15.9171 24.8679 14.6667 23.8468 14.6667H8.24967V11.9167H6.41634V15.3671C5.85351 15.8712 5.49967 16.6027 5.49967 17.4167C5.49967 18.2317 5.85351 18.9632 6.41634 19.4664V29.4902C5.88017 29.6799 5.41598 30.0311 5.08766 30.4955C4.75934 30.9599 4.58303 31.5147 4.58301 32.0834V37.5834H6.41634V33.9167H8.24967V37.5834H10.083V32.0834ZM22.9163 24.234L23.9824 23.7427C25.0311 23.2596 26.583 21.8662 26.583 19.7735C26.583 18.4957 26.0284 17.722 25.384 17.2169C25.0711 16.9734 24.7231 16.7787 24.3518 16.6394C24.1911 16.5766 24.0243 16.5305 23.8541 16.5019C23.8413 16.5001 23.8394 16.5001 23.8468 16.5001H8.24967V18.3334H14.6663V35.7501C14.6663 35.9932 14.7629 36.2264 14.9348 36.3983C15.1067 36.5702 15.3399 36.6667 15.583 36.6667C15.8261 36.6667 16.0593 36.5702 16.2312 36.3983C16.4031 36.2264 16.4997 35.9932 16.4997 35.7501V26.5834H21.083V35.7501C21.083 35.9932 21.1796 36.2264 21.3515 36.3983C21.5234 36.5702 21.7566 36.6667 21.9997 36.6667C22.2428 36.6667 22.4759 36.5702 22.6479 36.3983C22.8198 36.2264 22.9163 35.9932 22.9163 35.7501V24.234Z" fill="black"/>
<path fill-rule="evenodd" clip-rule="evenodd" d="M34.6081 16.2114C34.3909 16.4593 34.1602 16.6949 33.9169 16.9173V19.1952C34.279 18.8377 34.7346 18.6406 35.1361 18.526C35.544 18.4105 35.9657 18.361 36.3278 18.3427C36.7651 18.3219 37.2035 18.336 37.6386 18.3849L37.6633 18.3876L37.6716 18.3885H37.6753C38.0942 18.4454 38.4214 18.7809 38.4663 19.2016V19.2135L38.47 19.2383C38.4823 19.3639 38.4902 19.4898 38.4938 19.6159C38.503 19.8579 38.5058 20.1925 38.4792 20.561C38.4517 20.9259 38.3939 21.3494 38.2711 21.7582C38.1501 22.1588 37.9466 22.6125 37.5854 22.97C37.2224 23.3294 36.7668 23.5264 36.3653 23.6401C35.9565 23.7565 35.5348 23.8051 35.1728 23.8234C34.7637 23.8433 34.3537 23.8325 33.9463 23.7914L33.9169 23.7886V32.0285C34.279 31.671 34.7346 31.4739 35.1361 31.3594C35.544 31.2439 35.9657 31.1944 36.3278 31.176C36.7651 31.1552 37.2035 31.1693 37.6386 31.2182L37.6633 31.2209L37.6716 31.2219H37.6753C38.0942 31.2787 38.4214 31.6142 38.4663 32.0349V32.0469L38.47 32.0716C38.4823 32.1972 38.4902 32.3231 38.4938 32.4493C38.503 32.6913 38.5058 33.0259 38.4792 33.3944C38.4517 33.7592 38.3939 34.1827 38.2711 34.5915C38.1501 34.9921 37.9466 35.4459 37.5854 35.8043C37.2224 36.1627 36.7668 36.3598 36.3653 36.4734C35.9565 36.5899 35.5348 36.6384 35.1728 36.6568C34.7637 36.6766 34.3537 36.6659 33.9463 36.6247L33.9169 36.6219V37.5835C33.9169 37.8266 33.8203 38.0598 33.6484 38.2317C33.4765 38.4036 33.2434 38.5002 33.0003 38.5002C32.7571 38.5002 32.524 38.4036 32.3521 38.2317C32.1802 38.0598 32.0836 37.8266 32.0836 37.5835V30.2044L32.0543 30.2071C31.6468 30.2483 31.2368 30.259 30.8278 30.2392C30.425 30.2223 30.0253 30.1608 29.6361 30.0559C29.2328 29.9422 28.7781 29.7451 28.416 29.3867C28.0539 29.0283 27.8504 28.5745 27.7294 28.1739C27.617 27.7836 27.5473 27.3822 27.5213 26.9768C27.4901 26.5363 27.4932 26.094 27.5305 25.654L27.5333 25.6293L27.5342 25.621V25.6174C27.58 25.1966 27.9063 24.8611 28.3253 24.8052H28.3289L28.3372 24.8034L28.3619 24.8006L28.4463 24.7914C28.8537 24.7503 29.2637 24.7395 29.6728 24.7594C30.0348 24.7777 30.4565 24.8263 30.8644 24.9427C31.2668 25.0564 31.7215 25.2525 32.0836 25.6109V16.9173C31.8403 16.6946 31.6096 16.4587 31.3924 16.2105C31.1065 15.8882 30.8566 15.5357 30.6472 15.1591C30.4363 14.7677 30.2503 14.2819 30.2503 13.7502C30.2503 13.2185 30.4354 12.7318 30.6472 12.3404C30.8617 11.9425 31.1367 11.5832 31.3924 11.2889C31.7017 10.9361 32.0382 10.6081 32.3989 10.3081L32.4191 10.2916L32.4255 10.2861L32.4283 10.2843V10.2834C32.7628 10.0175 33.2377 10.0175 33.5723 10.2834L33.575 10.2861L33.5814 10.2907L33.6016 10.3081C33.705 10.3928 33.8059 10.4805 33.9041 10.5712C34.0948 10.7454 34.3496 10.9929 34.6081 11.2889C34.8648 11.5823 35.1388 11.9425 35.3533 12.3404C35.5642 12.7318 35.7503 13.2185 35.7503 13.7502C35.7503 14.2819 35.5651 14.7686 35.3533 15.16C35.1439 15.5366 34.894 15.8891 34.6081 16.2114ZM33.2258 15.0069C33.1527 15.0907 33.0775 15.1726 33.0003 15.2526C32.923 15.1726 32.8478 15.0907 32.7748 15.0069C32.5778 14.7869 32.405 14.5462 32.2596 14.2892C32.1276 14.0435 32.0836 13.8639 32.0836 13.7502C32.0836 13.6365 32.1276 13.4569 32.2596 13.2112C32.3888 12.9729 32.5722 12.7254 32.7748 12.4934C32.8508 12.4064 32.9269 12.3239 33.0003 12.2478C33.0736 12.3239 33.1497 12.4064 33.2258 12.4934C33.4274 12.7263 33.6117 12.9729 33.7409 13.2112C33.8729 13.4569 33.9169 13.6365 33.9169 13.7502C33.9169 13.8639 33.8729 14.0435 33.7409 14.2892C33.6117 14.5275 33.4283 14.775 33.2258 15.0069ZM35.6357 33.1239C35.3964 33.1918 35.2663 33.2724 35.2048 33.3329C35.1434 33.3934 35.0582 33.5273 34.9848 33.772C34.9115 34.0335 34.8663 34.3021 34.8501 34.5732C34.8436 34.6599 34.839 34.7467 34.8363 34.8335C34.9152 34.8326 34.9958 34.8308 35.0793 34.8262C35.3598 34.8115 35.6338 34.7758 35.8648 34.7098C36.1041 34.6419 36.2352 34.5613 36.2957 34.5008C36.3571 34.4403 36.4423 34.3064 36.5157 34.0617C36.5872 33.8252 36.6293 33.5456 36.6504 33.2605C36.6569 33.1739 36.6615 33.0871 36.6642 33.0002C36.5853 33.0011 36.5047 33.0029 36.4213 33.0075C36.1559 33.0175 35.8925 33.0566 35.6357 33.1239ZM35.2048 20.4996C35.2663 20.4391 35.3964 20.3584 35.6357 20.2906C35.8676 20.2246 36.1417 20.1889 36.4213 20.1742C36.5038 20.1696 36.5863 20.1678 36.6642 20.1669C36.6615 20.2537 36.6569 20.3405 36.6504 20.4272C36.6293 20.7123 36.5863 20.9928 36.5157 21.2284C36.4423 21.4731 36.3571 21.606 36.2957 21.6674C36.2352 21.7279 36.1041 21.8086 35.8648 21.8764C35.608 21.9438 35.3446 21.9828 35.0793 21.9929C34.9968 21.9974 34.9143 21.9993 34.8363 22.0002C34.8391 21.9159 34.8437 21.8288 34.8501 21.7399C34.8712 21.4548 34.9143 21.1743 34.9848 20.9387C35.0582 20.6939 35.1434 20.561 35.2048 20.4996ZM29.3363 26.5835C29.3391 26.6679 29.3437 26.7549 29.3501 26.8439C29.3712 27.1289 29.4143 27.4094 29.4848 27.645C29.5582 27.8898 29.6434 28.0227 29.7048 28.0841C29.7663 28.1446 29.8964 28.2253 30.1357 28.2931C30.3676 28.3591 30.6417 28.3949 30.9213 28.4095C31.0038 28.4141 31.0863 28.4159 31.1642 28.4169C31.1615 28.33 31.1569 28.2432 31.1504 28.1565C31.1342 27.8854 31.089 27.6168 31.0157 27.3554C30.9423 27.1106 30.8571 26.9777 30.7957 26.9163C30.7352 26.8558 30.6041 26.7751 30.3648 26.7073C30.108 26.6399 29.8446 26.6009 29.5793 26.5909C29.4983 26.5867 29.4174 26.5842 29.3363 26.5835Z" fill="black"/>
</svg>
