<svg width="84" height="84" viewBox="0 0 84 84" fill="none" xmlns="http://www.w3.org/2000/svg">
<path fill-rule="evenodd" clip-rule="evenodd" d="M57.75 32.4362C59.7852 33.0452 61.25 33.25 61.25 33.25V28H64.75C67.0706 28 69.2962 27.0781 70.9372 25.4372C72.5781 23.7962 73.5 21.5706 73.5 19.25C73.5 16.9294 72.5781 14.7038 70.9372 13.0628C69.2962 11.4219 67.0706 10.5 64.75 10.5H54.663C52.2328 10.5 49.9022 11.4654 48.1838 13.1838C46.4654 14.9022 45.5 17.2328 45.5 19.663C45.5 27.5695 53.109 31.0485 57.75 32.4362ZM70 19.25C70 20.6424 69.4469 21.9777 68.4623 22.9623C67.4777 23.9469 66.1424 24.5 64.75 24.5H57.75V28.7612C56.7899 28.4352 55.8527 28.0453 54.9447 27.594C51.4745 25.8545 49 23.38 49 19.663C49 18.1611 49.5966 16.7207 50.6587 15.6587C51.7207 14.5966 53.1611 14 54.663 14H64.75C66.1424 14 67.4777 14.5531 68.4623 15.5377C69.4469 16.5223 70 17.8576 70 19.25Z" fill="#109172"/>
<path fill-rule="evenodd" clip-rule="evenodd" d="M25.9302 31.4878C23.6368 31.4083 21.4665 30.4309 19.8872 28.766C18.308 27.1012 17.4462 24.8824 17.4878 22.5881C17.5293 20.2938 18.4709 18.1076 20.1094 16.5011C21.7479 14.8946 23.9522 13.9963 26.2469 14H31.7927C34.0358 14 36.187 14.8911 37.7732 16.4772C39.3593 18.0634 40.2504 20.2146 40.2504 22.4578C40.2504 29.5313 33.8979 32.7653 29.7504 34.125C27.7414 34.783 26.2504 35 26.2504 35V31.5L25.9302 31.4878ZM29.7504 28.1243L26.0579 27.9913C24.6703 27.9611 23.3512 27.3823 22.3894 26.3817C21.4276 25.3811 20.9015 24.0401 20.9262 22.6524C20.951 21.2647 21.5246 19.9433 22.5215 18.9776C23.5184 18.0119 24.8574 17.4806 26.2452 17.5H31.7909C32.4421 17.4998 33.087 17.6278 33.6887 17.8769C34.2904 18.1259 34.8371 18.4911 35.2977 18.9515C35.7582 19.4119 36.1236 19.9585 36.3729 20.5601C36.6221 21.1617 36.7504 21.8066 36.7504 22.4578C36.7504 25.809 34.6207 28.0053 31.6334 29.5628C31.0034 29.8918 30.3647 30.1718 29.7504 30.4098V28.1243Z" fill="#109172"/>
<path fill-rule="evenodd" clip-rule="evenodd" d="M49 42C49 45.8675 45.8675 49 42 49C38.1325 49 35 45.8675 35 42C35 38.1325 38.1325 35 42 35C45.8675 35 49 38.1325 49 42ZM45.5 42C45.5 42.9283 45.1313 43.8185 44.4749 44.4749C43.8185 45.1313 42.9283 45.5 42 45.5C41.0717 45.5 40.1815 45.1313 39.5251 44.4749C38.8687 43.8185 38.5 42.9283 38.5 42C38.5 41.0717 38.8687 40.1815 39.5251 39.5251C40.1815 38.8687 41.0717 38.5 42 38.5C42.9283 38.5 43.8185 38.8687 44.4749 39.5251C45.1313 40.1815 45.5 41.0717 45.5 42Z" fill="#109172"/>
<path fill-rule="evenodd" clip-rule="evenodd" d="M33.25 45.5C33.25 49.3675 30.1175 52.5 26.25 52.5C22.3825 52.5 19.25 49.3675 19.25 45.5C19.25 41.6325 22.3825 38.5 26.25 38.5C30.1175 38.5 33.25 41.6325 33.25 45.5ZM29.75 45.5C29.75 46.4283 29.3813 47.3185 28.7249 47.9749C28.0685 48.6313 27.1783 49 26.25 49C25.3217 49 24.4315 48.6313 23.7751 47.9749C23.1187 47.3185 22.75 46.4283 22.75 45.5C22.75 44.5717 23.1187 43.6815 23.7751 43.0251C24.4315 42.3687 25.3217 42 26.25 42C27.1783 42 28.0685 42.3687 28.7249 43.0251C29.3813 43.6815 29.75 44.5717 29.75 45.5Z" fill="#109172"/>
<path fill-rule="evenodd" clip-rule="evenodd" d="M10.5 63.9537C10.5 58.6652 20.993 56 26.25 56C27.2738 56 28.497 56.1015 29.8025 56.3028C32.1475 54.5825 36.4473 52.5 42 52.5C47.551 52.5 51.8507 54.5825 54.1992 56.3028C55.3736 56.1134 56.5605 56.0122 57.75 56C63.007 56 73.5 58.6652 73.5 63.9537V73.5H10.5V63.9537ZM37.891 63.0402C38.5 63.6072 38.5 63.903 38.5 63.9537V70H14V63.9537C14 63.9012 14 63.6072 14.609 63.0402C15.2442 62.447 16.2925 61.8153 17.717 61.2378C20.573 60.0827 24.0625 59.5 26.25 59.5C28.4375 59.5 31.927 60.0827 34.783 61.2378C36.2075 61.8153 37.2558 62.447 37.891 63.0402ZM49.2485 57.498C46.9609 56.5061 44.4934 55.9961 42 56C39.102 56 36.638 56.6755 34.7532 57.498C38.6295 58.8 42 60.956 42 63.9555C42 60.956 45.3705 58.8017 49.2485 57.498ZM70 63.9555C70 63.903 70 63.6072 69.391 63.0402C68.7558 62.447 67.7075 61.8153 66.283 61.2378C63.427 60.0827 59.9375 59.5 57.75 59.5C55.5625 59.5 52.073 60.0827 49.217 61.2378C47.7925 61.8153 46.7442 62.447 46.109 63.0402C45.5 63.6072 45.5 63.903 45.5 63.9537V70H70V63.9537V63.9555Z" fill="#109172"/>
<path fill-rule="evenodd" clip-rule="evenodd" d="M57.75 52.5C61.6175 52.5 64.75 49.3675 64.75 45.5C64.75 41.6325 61.6175 38.5 57.75 38.5C53.8825 38.5 50.75 41.6325 50.75 45.5C50.75 49.3675 53.8825 52.5 57.75 52.5ZM57.75 49C58.6783 49 59.5685 48.6313 60.2249 47.9749C60.8813 47.3185 61.25 46.4283 61.25 45.5C61.25 44.5717 60.8813 43.6815 60.2249 43.0251C59.5685 42.3687 58.6783 42 57.75 42C56.8217 42 55.9315 42.3687 55.2751 43.0251C54.6187 43.6815 54.25 44.5717 54.25 45.5C54.25 46.4283 54.6187 47.3185 55.2751 47.9749C55.9315 48.6313 56.8217 49 57.75 49Z" fill="#109172"/>
</svg>
