<svg width="24" height="22" viewBox="0 0 24 22" fill="none" xmlns="http://www.w3.org/2000/svg">
<path d="M23 3.22072C23 3.22072 20.982 4.2795 19.86 4.57972C19.2577 3.96463 18.4573 3.52867 17.567 3.3308C16.6767 3.13293 15.7395 3.1827 14.8821 3.47339C14.0247 3.76407 13.2884 4.28163 12.773 4.95608C12.2575 5.63053 11.9877 6.42933 12 7.24443V8.13267C10.2426 8.17314 8.50127 7.82695 6.93101 7.12491C5.36074 6.42288 4.01032 5.38681 3 4.10896C3 4.10896 -1 12.1031 8 15.656C5.94053 16.8977 3.48716 17.5204 1 17.4325C10 21.8737 21 17.4325 21 7.21778C21 6.97085 20.972 6.72392 20.92 6.48055C21.94 5.58698 23 3.22072 23 3.22072Z" stroke="#109172" stroke-width="2" stroke-linecap="round" stroke-linejoin="round"/>
</svg>
