<svg width="54" height="54" viewBox="0 0 54 54" fill="none" xmlns="http://www.w3.org/2000/svg">
<path d="M4.5 20.25C4.5 26.2174 6.87053 31.9403 11.0901 36.1599C15.3097 40.3795 21.0326 42.75 27 42.75C32.9674 42.75 38.6903 40.3795 42.9099 36.1599C47.1295 31.9403 49.5 26.2174 49.5 20.25" stroke="black" stroke-width="4.5" stroke-linecap="round" stroke-linejoin="round"/>
<path d="M27 42.75C27 36.7826 29.3705 31.0597 33.5901 26.8401C37.8097 22.6205 43.5326 20.25 49.5 20.25" stroke="black" stroke-width="4.5" stroke-linecap="round" stroke-linejoin="round"/>
<path d="M4.5 20.25C7.45474 20.25 10.3806 20.832 13.1104 21.9627C15.8402 23.0934 18.3206 24.7508 20.4099 26.8401C22.4992 28.9294 24.1566 31.4098 25.2873 34.1396C26.418 36.8694 27 39.7953 27 42.75" stroke="black" stroke-width="4.5" stroke-linecap="round" stroke-linejoin="round"/>
<path d="M27 9C29.2675 11.1646 31.0421 13.7923 32.203 16.7043C33.3639 19.6162 33.8838 22.7441 33.7275 25.875" stroke="black" stroke-width="4.5" stroke-linecap="round" stroke-linejoin="round"/>
<path d="M20.2733 25.875C20.1169 22.7441 20.6369 19.6162 21.7978 16.7043C22.9587 13.7923 24.7333 11.1646 27.0008 9" stroke="black" stroke-width="4.5" stroke-linecap="round" stroke-linejoin="round"/>
</svg>
